# xmcd
#
# Track frame offsets:
#	150
#	9814
#	24671
#	36811
#	47793
#	68663
#	83516
#	95471
#	109563
#	121117
#	137828
#	152373
#	162591
#	176158
#	185933
#	198393
#	210152
#	222664
#	236347
#	247657
#
# Disc length: 3547 seconds
#
# Revision: 0
# Processed by: cddbd v1.5.2PL0 Copyright (c) Steve Scherf et al.
# Submitted via: audiograbber 1.83.01
#
DISCID=010dd914
DTITLE=Glen Campbell - Classic Campbell CD1
DYEAR=2006
DGENRE=Country
TTITLE0=I Walk The Line (1995)
TTITLE1=God Only Knows (1977)
TTITLE2=By The Time I Get To Phoenix (1967)
TTITLE3=It's Only Make Believe (1970)
TTITLE4=Bridge Over Troubled Water (1970)
TTITLE5=Your Cheatin' Heart (1973)
TTITLE6=Homeward Bound (1967)
TTITLE7=Gentle On My Mind (1967)
TTITLE8=(Sittin' On) The Dock Of The Bay (1968)
TTITLE9=Both Sides Now (1970)
TTITLE10=All The Way (1970)
TTITLE11=Only The Lonely (Know The Way I Feel) (1966)
TTITLE12=Annie's Song (live) (1975)
TTITLE13=Oh Boy (1995)
TTITLE14=You'll Never Walk Alone (1970)
TTITLE15=The Twelfth Of Never (1968)
TTITLE16=The Impossible Dream (1967)
TTITLE17=Highwayman (1979)
TTITLE18=True Grit (1969)
TTITLE19=My Way (1970)
EXTD=Track dates provided.
EXTT0=
EXTT1=
EXTT2=
EXTT3=
EXTT4=
EXTT5=
EXTT6=
EXTT7=
EXTT8=
EXTT9=
EXTT10=
EXTT11=
EXTT12=
EXTT13=
EXTT14=
EXTT15=
EXTT16=
EXTT17=
EXTT18=
EXTT19=
PLAYORDER=
